# xmcd
#
# Track frame offsets:
#	150
#	12847
#	27217
#	43317
#	58424
#	70460
#	86935
#	102120
#	111864
#	124561
#	137520
#
# Disc length: 1999 seconds
# Revision: 0
# Processed by: cddbd v1.5.2PL0 Copyright (c) Steve Scherf et al.
# Submitted via: dBpowerAMP V12.0
#
DISCID=9a07cd0b
DTITLE=Irene Kelley - These Hills
DYEAR=2016
DGENRE=Country
TTITLE0=Carolina Wind 
TTITLE1=Coal Train
TTITLE2=These Hills
TTITLE3=Johnson's Hardware Store
TTITLE4=Up in Those Blueridge Mountains
TTITLE5=Fallin' Anyway
TTITLE6=Lester's Song (These Are The Eyes)
TTITLE7=Leanin' On The Good TImes
TTITLE8=Moonlight is Falling
TTITLE9=Do You Think of Me
TTITLE10=Before You Call Me Home
EXTD=
EXTT0=
EXTT1=
EXTT2=
EXTT3=
EXTT4=
EXTT5=
EXTT6=
EXTT7=
EXTT8=
EXTT9=
EXTT10=
PLAYORDER=
